<mxfile host="app.diagrams.net" modified="2022-07-20T13:20:03.534Z" agent="5.0 (Windows NT 10.0; Win64; x64) AppleWebKit/537.36 (KHTML, like Gecko) Chrome/103.0.5060.114 Safari/537.36" etag="Zly7egEvsqGYEwiiAEQ9" version="20.1.2" type="github">
  <diagram id="sSHiEugCBAy1dFzR_FE-" name="Pàgina-1">
    <mxGraphModel dx="1102" dy="586" grid="1" gridSize="10" guides="1" tooltips="1" connect="1" arrows="1" fold="1" page="1" pageScale="1" pageWidth="827" pageHeight="1169" math="0" shadow="0">
      <root>
        <mxCell id="0" />
        <mxCell id="1" parent="0" />
        <mxCell id="noDrvXDxjBVshsAHtkk1-4" value="Persona" style="swimlane;childLayout=stackLayout;horizontal=1;startSize=30;horizontalStack=0;rounded=1;fontSize=14;fontStyle=0;strokeWidth=2;resizeParent=0;resizeLast=1;shadow=0;align=center;fillStyle=auto;gradientColor=none;swimlaneFillColor=none;fillColor=default;sketch=0;glass=0;swimlaneLine=1;perimeterSpacing=0;" parent="1" vertex="1">
          <mxGeometry x="260" y="120" width="160" height="130" as="geometry">
            <mxRectangle x="480" y="130" width="100" height="30" as="alternateBounds" />
          </mxGeometry>
        </mxCell>
        <mxCell id="noDrvXDxjBVshsAHtkk1-5" value="- &lt;u&gt;codiPersonal&lt;br&gt;&lt;/u&gt;- dni&lt;br&gt;- nombre&lt;br&gt;- apellidos&lt;br&gt;- fijo&lt;br&gt;-móvil" style="text;html=1;align=left;verticalAlign=top;resizable=0;points=[];autosize=1;strokeColor=none;fillColor=none;spacingLeft=4;" parent="noDrvXDxjBVshsAHtkk1-4" vertex="1">
          <mxGeometry y="30" width="160" height="100" as="geometry" />
        </mxCell>
        <mxCell id="noDrvXDxjBVshsAHtkk1-7" value="&lt;br&gt;" style="text;html=1;align=left;verticalAlign=top;resizable=0;points=[];autosize=1;strokeColor=none;fillColor=none;spacingLeft=4;" parent="noDrvXDxjBVshsAHtkk1-4" vertex="1">
          <mxGeometry y="130" width="160" as="geometry" />
        </mxCell>
        <mxCell id="XAi6DjdDJ4cRaxT2IrHZ-1" value="" style="triangle;whiteSpace=wrap;html=1;rotation=90;" vertex="1" parent="1">
          <mxGeometry x="322" y="280" width="36" height="45" as="geometry" />
        </mxCell>
        <mxCell id="XAi6DjdDJ4cRaxT2IrHZ-2" value="Cliente" style="swimlane;childLayout=stackLayout;horizontal=1;startSize=30;horizontalStack=0;rounded=1;fontSize=14;fontStyle=0;strokeWidth=2;resizeParent=0;resizeLast=1;shadow=0;align=center;fillStyle=auto;gradientColor=none;swimlaneFillColor=none;fillColor=default;sketch=0;glass=0;swimlaneLine=1;perimeterSpacing=0;" vertex="1" parent="1">
          <mxGeometry x="380" y="360" width="160" height="60" as="geometry">
            <mxRectangle x="480" y="130" width="100" height="30" as="alternateBounds" />
          </mxGeometry>
        </mxCell>
        <mxCell id="XAi6DjdDJ4cRaxT2IrHZ-3" value="- &lt;u&gt;codiPersonal&lt;/u&gt;" style="text;html=1;align=left;verticalAlign=top;resizable=0;points=[];autosize=1;strokeColor=none;fillColor=none;spacingLeft=4;" vertex="1" parent="XAi6DjdDJ4cRaxT2IrHZ-2">
          <mxGeometry y="30" width="160" height="30" as="geometry" />
        </mxCell>
        <mxCell id="XAi6DjdDJ4cRaxT2IrHZ-5" value="Trabajador" style="swimlane;childLayout=stackLayout;horizontal=1;startSize=30;horizontalStack=0;rounded=1;fontSize=14;fontStyle=0;strokeWidth=2;resizeParent=0;resizeLast=1;shadow=0;align=center;fillStyle=auto;gradientColor=none;swimlaneFillColor=none;fillColor=default;sketch=0;glass=0;swimlaneLine=1;perimeterSpacing=0;" vertex="1" parent="1">
          <mxGeometry x="162" y="360" width="160" height="60" as="geometry">
            <mxRectangle x="480" y="130" width="100" height="30" as="alternateBounds" />
          </mxGeometry>
        </mxCell>
        <mxCell id="XAi6DjdDJ4cRaxT2IrHZ-6" value="- &lt;u&gt;codiPersonal&lt;/u&gt;" style="text;html=1;align=left;verticalAlign=top;resizable=0;points=[];autosize=1;strokeColor=none;fillColor=none;spacingLeft=4;" vertex="1" parent="XAi6DjdDJ4cRaxT2IrHZ-5">
          <mxGeometry y="30" width="160" height="30" as="geometry" />
        </mxCell>
        <mxCell id="XAi6DjdDJ4cRaxT2IrHZ-9" value="Compra" style="shape=rhombus;perimeter=rhombusPerimeter;whiteSpace=wrap;html=1;align=center;" vertex="1" parent="1">
          <mxGeometry x="650" y="300" width="120" height="60" as="geometry" />
        </mxCell>
        <mxCell id="XAi6DjdDJ4cRaxT2IrHZ-10" value="Alquila" style="shape=rhombus;perimeter=rhombusPerimeter;whiteSpace=wrap;html=1;align=center;" vertex="1" parent="1">
          <mxGeometry x="650" y="410" width="120" height="60" as="geometry" />
        </mxCell>
        <mxCell id="XAi6DjdDJ4cRaxT2IrHZ-11" value="Inmueble" style="swimlane;childLayout=stackLayout;horizontal=1;startSize=30;horizontalStack=0;rounded=1;fontSize=14;fontStyle=0;strokeWidth=2;resizeParent=0;resizeLast=1;shadow=0;align=center;fillStyle=auto;gradientColor=none;swimlaneFillColor=none;fillColor=default;sketch=0;glass=0;swimlaneLine=1;perimeterSpacing=0;" vertex="1" parent="1">
          <mxGeometry x="870" y="360" width="160" height="60" as="geometry">
            <mxRectangle x="480" y="130" width="100" height="30" as="alternateBounds" />
          </mxGeometry>
        </mxCell>
        <mxCell id="XAi6DjdDJ4cRaxT2IrHZ-12" value="- &lt;u&gt;codiPersonal&lt;/u&gt;" style="text;html=1;align=left;verticalAlign=top;resizable=0;points=[];autosize=1;strokeColor=none;fillColor=none;spacingLeft=4;" vertex="1" parent="XAi6DjdDJ4cRaxT2IrHZ-11">
          <mxGeometry y="30" width="160" height="30" as="geometry" />
        </mxCell>
        <mxCell id="XAi6DjdDJ4cRaxT2IrHZ-13" value="" style="triangle;whiteSpace=wrap;html=1;rotation=90;" vertex="1" parent="1">
          <mxGeometry x="932" y="450" width="36" height="45" as="geometry" />
        </mxCell>
        <mxCell id="XAi6DjdDJ4cRaxT2IrHZ-14" value="Piso" style="swimlane;childLayout=stackLayout;horizontal=1;startSize=30;horizontalStack=0;rounded=1;fontSize=14;fontStyle=0;strokeWidth=2;resizeParent=0;resizeLast=1;shadow=0;align=center;fillStyle=auto;gradientColor=none;swimlaneFillColor=none;fillColor=default;sketch=0;glass=0;swimlaneLine=1;perimeterSpacing=0;" vertex="1" parent="1">
          <mxGeometry x="702" y="530" width="160" height="60" as="geometry">
            <mxRectangle x="480" y="130" width="100" height="30" as="alternateBounds" />
          </mxGeometry>
        </mxCell>
        <mxCell id="XAi6DjdDJ4cRaxT2IrHZ-15" value="- &lt;u&gt;codiPersonal&lt;/u&gt;" style="text;html=1;align=left;verticalAlign=top;resizable=0;points=[];autosize=1;strokeColor=none;fillColor=none;spacingLeft=4;" vertex="1" parent="XAi6DjdDJ4cRaxT2IrHZ-14">
          <mxGeometry y="30" width="160" height="30" as="geometry" />
        </mxCell>
        <mxCell id="XAi6DjdDJ4cRaxT2IrHZ-16" value="Local" style="swimlane;childLayout=stackLayout;horizontal=1;startSize=30;horizontalStack=0;rounded=1;fontSize=14;fontStyle=0;strokeWidth=2;resizeParent=0;resizeLast=1;shadow=0;align=center;fillStyle=auto;gradientColor=none;swimlaneFillColor=none;fillColor=default;sketch=0;glass=0;swimlaneLine=1;perimeterSpacing=0;" vertex="1" parent="1">
          <mxGeometry x="870" y="530" width="160" height="60" as="geometry">
            <mxRectangle x="480" y="130" width="100" height="30" as="alternateBounds" />
          </mxGeometry>
        </mxCell>
        <mxCell id="XAi6DjdDJ4cRaxT2IrHZ-17" value="- &lt;u&gt;codiPersonal&lt;/u&gt;" style="text;html=1;align=left;verticalAlign=top;resizable=0;points=[];autosize=1;strokeColor=none;fillColor=none;spacingLeft=4;" vertex="1" parent="XAi6DjdDJ4cRaxT2IrHZ-16">
          <mxGeometry y="30" width="160" height="30" as="geometry" />
        </mxCell>
        <mxCell id="XAi6DjdDJ4cRaxT2IrHZ-18" value="Garaje" style="swimlane;childLayout=stackLayout;horizontal=1;startSize=30;horizontalStack=0;rounded=1;fontSize=14;fontStyle=0;strokeWidth=2;resizeParent=0;resizeLast=1;shadow=0;align=center;fillStyle=auto;gradientColor=none;swimlaneFillColor=none;fillColor=default;sketch=0;glass=0;swimlaneLine=1;perimeterSpacing=0;" vertex="1" parent="1">
          <mxGeometry x="1040" y="530" width="160" height="60" as="geometry">
            <mxRectangle x="480" y="130" width="100" height="30" as="alternateBounds" />
          </mxGeometry>
        </mxCell>
        <mxCell id="XAi6DjdDJ4cRaxT2IrHZ-19" value="- &lt;u&gt;codiPersonal&lt;/u&gt;" style="text;html=1;align=left;verticalAlign=top;resizable=0;points=[];autosize=1;strokeColor=none;fillColor=none;spacingLeft=4;" vertex="1" parent="XAi6DjdDJ4cRaxT2IrHZ-18">
          <mxGeometry y="30" width="160" height="30" as="geometry" />
        </mxCell>
        <mxCell id="XAi6DjdDJ4cRaxT2IrHZ-20" value="gestor" style="text;strokeColor=none;fillColor=none;spacingLeft=4;spacingRight=4;overflow=hidden;rotatable=0;points=[[0,0.5],[1,0.5]];portConstraint=eastwest;fontSize=12;" vertex="1" parent="1">
          <mxGeometry x="550" y="450" width="50" height="30" as="geometry" />
        </mxCell>
        <mxCell id="XAi6DjdDJ4cRaxT2IrHZ-24" value="" style="endArrow=none;html=1;rounded=0;" edge="1" parent="1" source="XAi6DjdDJ4cRaxT2IrHZ-2" target="XAi6DjdDJ4cRaxT2IrHZ-9">
          <mxGeometry relative="1" as="geometry">
            <mxPoint x="540" y="370" as="sourcePoint" />
            <mxPoint x="600" y="390" as="targetPoint" />
          </mxGeometry>
        </mxCell>
        <mxCell id="XAi6DjdDJ4cRaxT2IrHZ-25" value="" style="endArrow=none;html=1;rounded=0;" edge="1" parent="1" source="XAi6DjdDJ4cRaxT2IrHZ-3" target="XAi6DjdDJ4cRaxT2IrHZ-10">
          <mxGeometry relative="1" as="geometry">
            <mxPoint x="550" y="405.71" as="sourcePoint" />
            <mxPoint x="674.76" y="374.29" as="targetPoint" />
          </mxGeometry>
        </mxCell>
        <mxCell id="XAi6DjdDJ4cRaxT2IrHZ-26" value="" style="endArrow=none;html=1;rounded=0;" edge="1" parent="1" source="XAi6DjdDJ4cRaxT2IrHZ-10" target="XAi6DjdDJ4cRaxT2IrHZ-12">
          <mxGeometry relative="1" as="geometry">
            <mxPoint x="690" y="382.2643782136736" as="sourcePoint" />
            <mxPoint x="820.0399999999997" y="397.73000000000013" as="targetPoint" />
          </mxGeometry>
        </mxCell>
        <mxCell id="XAi6DjdDJ4cRaxT2IrHZ-27" value="" style="endArrow=none;html=1;rounded=0;" edge="1" parent="1" source="XAi6DjdDJ4cRaxT2IrHZ-9" target="XAi6DjdDJ4cRaxT2IrHZ-11">
          <mxGeometry relative="1" as="geometry">
            <mxPoint x="760.001544865865" y="359.9957724329324" as="sourcePoint" />
            <mxPoint x="836.11" y="330.7600000000001" as="targetPoint" />
          </mxGeometry>
        </mxCell>
        <mxCell id="XAi6DjdDJ4cRaxT2IrHZ-29" value="casero" style="text;strokeColor=none;fillColor=none;spacingLeft=4;spacingRight=4;overflow=hidden;rotatable=0;points=[[0,0.5],[1,0.5]];portConstraint=eastwest;fontSize=12;" vertex="1" parent="1">
          <mxGeometry x="550" y="470" width="50" height="30" as="geometry" />
        </mxCell>
        <mxCell id="XAi6DjdDJ4cRaxT2IrHZ-30" value="" style="endArrow=none;html=1;rounded=0;" edge="1" parent="1" source="XAi6DjdDJ4cRaxT2IrHZ-20" target="XAi6DjdDJ4cRaxT2IrHZ-10">
          <mxGeometry relative="1" as="geometry">
            <mxPoint x="766.4516129032259" y="443.2258064516128" as="sourcePoint" />
            <mxPoint x="880.0000000000002" y="426.66666666666663" as="targetPoint" />
          </mxGeometry>
        </mxCell>
        <mxCell id="XAi6DjdDJ4cRaxT2IrHZ-31" value="" style="endArrow=none;html=1;rounded=0;" edge="1" parent="1" source="XAi6DjdDJ4cRaxT2IrHZ-29" target="XAi6DjdDJ4cRaxT2IrHZ-10">
          <mxGeometry relative="1" as="geometry">
            <mxPoint x="660" y="472.9411764705883" as="sourcePoint" />
            <mxPoint x="686" y="463" as="targetPoint" />
          </mxGeometry>
        </mxCell>
        <mxCell id="XAi6DjdDJ4cRaxT2IrHZ-34" value="fechaAlquiler" style="text;strokeColor=none;fillColor=none;spacingLeft=4;spacingRight=4;overflow=hidden;rotatable=0;points=[[0,0.5],[1,0.5]];portConstraint=eastwest;fontSize=12;" vertex="1" parent="1">
          <mxGeometry x="550" y="510" width="80" height="30" as="geometry" />
        </mxCell>
        <mxCell id="XAi6DjdDJ4cRaxT2IrHZ-35" value="precio" style="text;strokeColor=none;fillColor=none;spacingLeft=4;spacingRight=4;overflow=hidden;rotatable=0;points=[[0,0.5],[1,0.5]];portConstraint=eastwest;fontSize=12;" vertex="1" parent="1">
          <mxGeometry x="550" y="490" width="50" height="30" as="geometry" />
        </mxCell>
        <mxCell id="XAi6DjdDJ4cRaxT2IrHZ-36" value="" style="endArrow=none;html=1;rounded=0;" edge="1" parent="1" source="XAi6DjdDJ4cRaxT2IrHZ-34" target="XAi6DjdDJ4cRaxT2IrHZ-10">
          <mxGeometry relative="1" as="geometry">
            <mxPoint x="610" y="486.66666666666674" as="sourcePoint" />
            <mxPoint x="684" y="462" as="targetPoint" />
          </mxGeometry>
        </mxCell>
        <mxCell id="XAi6DjdDJ4cRaxT2IrHZ-37" value="" style="endArrow=none;html=1;rounded=0;" edge="1" parent="1" source="XAi6DjdDJ4cRaxT2IrHZ-35" target="XAi6DjdDJ4cRaxT2IrHZ-10">
          <mxGeometry relative="1" as="geometry">
            <mxPoint x="635.3846153846155" y="500" as="sourcePoint" />
            <mxPoint x="692.5" y="466.25" as="targetPoint" />
          </mxGeometry>
        </mxCell>
        <mxCell id="XAi6DjdDJ4cRaxT2IrHZ-38" value="precio" style="text;strokeColor=none;fillColor=none;spacingLeft=4;spacingRight=4;overflow=hidden;rotatable=0;points=[[0,0.5],[1,0.5]];portConstraint=eastwest;fontSize=12;" vertex="1" parent="1">
          <mxGeometry x="670" y="230" width="50" height="30" as="geometry" />
        </mxCell>
        <mxCell id="XAi6DjdDJ4cRaxT2IrHZ-40" value="fechaCompra" style="text;strokeColor=none;fillColor=none;spacingLeft=4;spacingRight=4;overflow=hidden;rotatable=0;points=[[0,0.5],[1,0.5]];portConstraint=eastwest;fontSize=12;" vertex="1" parent="1">
          <mxGeometry x="612" y="250" width="90" height="30" as="geometry" />
        </mxCell>
        <mxCell id="XAi6DjdDJ4cRaxT2IrHZ-41" value="codigoCompra" style="text;strokeColor=none;fillColor=none;spacingLeft=4;spacingRight=4;overflow=hidden;rotatable=0;points=[[0,0.5],[1,0.5]];portConstraint=eastwest;fontSize=12;" vertex="1" parent="1">
          <mxGeometry x="570" y="270" width="90" height="30" as="geometry" />
        </mxCell>
        <mxCell id="XAi6DjdDJ4cRaxT2IrHZ-42" value="" style="endArrow=none;html=1;rounded=0;" edge="1" parent="1" source="XAi6DjdDJ4cRaxT2IrHZ-41" target="XAi6DjdDJ4cRaxT2IrHZ-9">
          <mxGeometry relative="1" as="geometry">
            <mxPoint x="623.89" y="308.63037037037043" as="sourcePoint" />
            <mxPoint x="690.106216216216" y="296.3681081081081" as="targetPoint" />
          </mxGeometry>
        </mxCell>
        <mxCell id="XAi6DjdDJ4cRaxT2IrHZ-43" value="" style="endArrow=none;html=1;rounded=0;" edge="1" parent="1" source="XAi6DjdDJ4cRaxT2IrHZ-40" target="XAi6DjdDJ4cRaxT2IrHZ-9">
          <mxGeometry relative="1" as="geometry">
            <mxPoint x="660" y="296.79037037037045" as="sourcePoint" />
            <mxPoint x="706.0119813563365" y="308.2090093218318" as="targetPoint" />
          </mxGeometry>
        </mxCell>
        <mxCell id="XAi6DjdDJ4cRaxT2IrHZ-44" value="" style="endArrow=none;html=1;rounded=0;" edge="1" parent="1" source="XAi6DjdDJ4cRaxT2IrHZ-38" target="XAi6DjdDJ4cRaxT2IrHZ-9">
          <mxGeometry relative="1" as="geometry">
            <mxPoint x="690" y="279.29037037037045" as="sourcePoint" />
            <mxPoint x="736.0119813563365" y="290.7090093218318" as="targetPoint" />
          </mxGeometry>
        </mxCell>
      </root>
    </mxGraphModel>
  </diagram>
</mxfile>
